<?xml version="1.0" encoding="UTF-8"?>
<svg width="36px" height="36px" viewBox="0 0 36 36" version="1.1" xmlns="http://www.w3.org/2000/svg" xmlns:xlink="http://www.w3.org/1999/xlink">
    <!-- Generator: Sketch 54 (76480) - https://sketchapp.com -->
    <title>faq</title>
    <desc>Created with Sketch.</desc>
    <g id="faq" stroke="none" stroke-width="1" fill="none" fill-rule="evenodd" opacity="0.699999988">
        <path d="M18.1875,35.375 C27.6798941,35.375 35.375,27.6798941 35.375,18.1875 C35.375,8.69510586 27.6798941,1 18.1875,1 C8.69510586,1 1,8.69510586 1,18.1875 C1,27.6798941 8.69510586,35.375 18.1875,35.375 Z M19.3190168,20.9319738 L16.6390168,20.9319738 L16.6390168,17.9719738 C17.5190168,17.7919738 18.2990168,17.4919738 18.9990168,17.0319738 C19.6990168,16.5719738 20.0390168,16.0719738 20.0390168,15.4919738 C20.0390168,14.4319738 19.0790168,13.8919738 17.7390168,13.8919738 C16.5990168,13.8919738 15.3990168,14.2719738 14.1590168,15.0119738 L14.1590168,12.4919738 C15.2990168,11.7119738 16.6390168,11.3119738 18.1990168,11.3119738 C19.4990168,11.3119738 20.6190168,11.6719738 21.5390168,12.3919738 C22.4790168,13.0919738 22.9390168,14.0719738 22.9390168,15.3119738 C22.9390168,16.2919738 22.5790168,17.1319738 21.8590168,17.8319738 C21.1390168,18.5319738 20.2990168,19.0319738 19.3190168,19.3319738 L19.3190168,20.9319738 Z M18.0390168,25.8119738 C17.0590168,25.8119738 16.2990168,25.0319738 16.2990168,24.0519738 C16.2990168,23.0919738 17.0590168,22.3319738 18.0390168,22.3319738 C18.9990168,22.3319738 19.7790168,23.0919738 19.7790168,24.0519738 C19.7790168,25.0319738 18.9990168,25.8119738 18.0390168,25.8119738 Z" id="Combined-Shape" fill="#FFFFFF"></path>
    </g>
</svg>