<?xml version="1.0" encoding="UTF-8"?>
<svg width="187px" height="187px" viewBox="0 0 187 187" version="1.1" xmlns="http://www.w3.org/2000/svg" xmlns:xlink="http://www.w3.org/1999/xlink">
    <!-- Generator: Sketch 54.1 (76490) - https://sketchapp.com -->
    <title>our assembly</title>
    <desc>Created with Sketch.</desc>
    <defs>
        <rect id="path-1" x="0.79861528" y="0.184505832" width="186" height="186" rx="10"></rect>
    </defs>
    <g id="Desktop" stroke="none" stroke-width="1" fill="none" fill-rule="evenodd">
        <g id="KRUTOY-PromoSite-Accessory-Detail" transform="translate(-1057.000000, -1377.000000)">
            <g id="additionals" transform="translate(120.000000, 1254.155431)">
                <g id="assembly" transform="translate(936.066406, 123.000000)">
                    <g id="our-assembly" transform="translate(0.574418, 0.000000)">
                        <g>
                            <rect id="Mask" fill="#FFFFFF" x="0.539691116" y="0" width="186" height="186" rx="10"></rect>
                            <mask id="mask-2" fill="white">
                                <use xlink:href="#path-1"></use>
                            </mask>
                            <g id="Mask"></g>
                            <g id="Group-5" opacity="0.315652905" mask="url(#mask-2)">
                                <g transform="translate(-34.000000, -28.000000)">
                                    <path d="M101.359002,101.496793 L101.359002,99.2233263 C101.359002,96.9237929 99.8117052,95.0050596 97.7361712,94.4723929 L97.7361712,60.4327263 L100.715212,57.7671263 C101.19943,57.3341929 101.396418,56.6519263 101.219239,56.0161263 L97.6723425,43.2570596 C97.4698514,42.5271929 96.8227602,42.0251263 96.0854284,42.0251263 L90.9648241,42.0251263 C90.2285928,42.0251263 89.5804011,42.5271929 89.37791,43.2570596 L85.8310139,56.0161263 C85.6538342,56.6519263 85.8508228,57.3341929 86.3350407,57.7671263 L89.3140813,60.4327263 L89.3140813,94.4723929 C87.2396478,95.0050596 85.691251,96.9237929 85.691251,99.2233263 L85.691251,101.496793 C83.8193086,102.507726 82.5251263,104.505793 82.5251263,106.83026 L82.5251263,137.98106 C82.5251263,141.31306 85.1586113,144.025126 88.3940673,144.025126 L98.6561852,144.025126 C101.891641,144.025126 104.525126,141.31306 104.525126,137.98106 L104.525126,106.83026 C104.525126,104.505793 103.230944,102.507726 101.359002,101.496793 Z M89.5251263,55.5353502 L92.280913,45.0251263 L94.7693395,45.0251263 L97.5251263,55.5353502 L94.9222654,58.0061389 C94.9087414,58.0186349 94.9004189,58.0334028 94.8879351,58.0458987 C94.8463226,58.0879306 94.8088714,58.1345063 94.7714202,58.1810821 C94.7402108,58.2197059 94.7090014,58.2583298 94.6819533,58.2992256 C94.6517843,58.3446654 94.6268168,58.3935132 94.600809,58.4423609 C94.5758415,58.4900727 94.5498337,58.5366485 94.5290274,58.5854963 C94.5082212,58.6343441 94.4936568,58.6854638 94.4770118,58.7365836 C94.4603668,58.7911113 94.4426815,58.8433671 94.4312381,58.8990308 C94.420835,58.9490146 94.4145931,58.9989984 94.4083512,59.0501182 C94.4000287,59.1114619 94.3927466,59.1716696 94.3917062,59.2341493 C94.3906659,59.2534612 94.3865047,59.2705011 94.3865047,59.2898131 L94.3865047,94.0251263 L92.6668688,94.0251263 L92.6668688,59.292085 C92.6668688,59.2727731 92.6627075,59.2557332 92.6616672,59.2364213 C92.6595866,59.1750776 92.6523044,59.1137339 92.6450222,59.0523901 C92.6387804,59.0012704 92.6325385,58.9501506 92.6221354,58.9001668 C92.6106919,58.8445031 92.5930066,58.7911113 92.5763616,58.7377196 C92.5597166,58.6865998 92.5451523,58.63548 92.524346,58.5877683 C92.5035398,58.5377845 92.477532,58.4912087 92.4525645,58.4434969 C92.4265567,58.3946491 92.4015892,58.3458014 92.3714202,58.3003616 C92.344372,58.2594658 92.3131627,58.2208419 92.2819533,58.1822181 C92.2445021,58.1356423 92.2070508,58.0890665 92.1654384,58.0470347 C92.1529546,58.0345388 92.1435918,58.0197709 92.1311081,58.0072749 L89.5251263,55.5353502 Z M88.5251263,99.4996838 C88.5251263,98.6866307 89.1786782,98.0251263 89.9819569,98.0251263 L90.4617383,98.0251263 C90.4693886,98.0251263 90.4759459,98.0273387 90.4825033,98.0273387 L95.5677492,98.0273387 C95.5753995,98.0273387 95.5819569,98.0251263 95.5885142,98.0251263 L96.0682957,98.0251263 C96.8715744,98.0251263 97.5251263,98.6866307 97.5251263,99.4996838 L97.5251263,101.025126 L88.5251263,101.025126 L88.5251263,99.4996838 Z M95.5251263,141.025126 L92.5251263,141.025126 L92.5251263,112.71052 C92.5251263,111.781276 93.1980992,111.025126 94.0251263,111.025126 C94.8521533,111.025126 95.5251263,111.781276 95.5251263,112.71052 L95.5251263,141.025126 Z M101.525126,137.412909 C101.525126,138.85282 100.403691,140.025126 99.0238755,140.025126 L98.82875,140.025126 L98.82875,112.185365 C98.82875,112.068918 98.8169567,111.95583 98.7955144,111.846102 C98.6250476,109.240603 96.562293,107.168072 94.0245902,107.168072 C91.4868874,107.168072 89.4252049,109.239483 89.2547382,111.846102 C89.2332958,111.95583 89.2215025,112.068918 89.2215025,112.185365 L89.2215025,140.025126 L89.0263771,140.025126 C87.6465615,140.025126 86.5251263,138.85282 86.5251263,137.412909 L86.5251263,106.637343 C86.5251263,105.197433 87.6476336,104.025126 89.0263771,104.025126 L99.0238755,104.025126 C100.403691,104.025126 101.525126,105.197433 101.525126,106.637343 L101.525126,137.412909 Z" id="Shape" fill="#012A36" fill-rule="nonzero" transform="translate(93.525126, 93.025126) rotate(-45.000000) translate(-93.525126, -93.025126) "></path>
                                    <path d="M101.359002,217.496793 L101.359002,215.223326 C101.359002,212.923793 99.8117052,211.00506 97.7361712,210.472393 L97.7361712,176.432726 L100.715212,173.767126 C101.19943,173.334193 101.396418,172.651926 101.219239,172.016126 L97.6723425,159.25706 C97.4698514,158.527193 96.8227602,158.025126 96.0854284,158.025126 L90.9648241,158.025126 C90.2285928,158.025126 89.5804011,158.527193 89.37791,159.25706 L85.8310139,172.016126 C85.6538342,172.651926 85.8508228,173.334193 86.3350407,173.767126 L89.3140813,176.432726 L89.3140813,210.472393 C87.2396478,211.00506 85.691251,212.923793 85.691251,215.223326 L85.691251,217.496793 C83.8193086,218.507726 82.5251263,220.505793 82.5251263,222.83026 L82.5251263,253.98106 C82.5251263,257.31306 85.1586113,260.025126 88.3940673,260.025126 L98.6561852,260.025126 C101.891641,260.025126 104.525126,257.31306 104.525126,253.98106 L104.525126,222.83026 C104.525126,220.505793 103.230944,218.507726 101.359002,217.496793 Z M89.5251263,171.53535 L92.280913,161.025126 L94.7693395,161.025126 L97.5251263,171.53535 L94.9222654,174.006139 C94.9087414,174.018635 94.9004189,174.033403 94.8879351,174.045899 C94.8463226,174.087931 94.8088714,174.134506 94.7714202,174.181082 C94.7402108,174.219706 94.7090014,174.25833 94.6819533,174.299226 C94.6517843,174.344665 94.6268168,174.393513 94.600809,174.442361 C94.5758415,174.490073 94.5498337,174.536648 94.5290274,174.585496 C94.5082212,174.634344 94.4936568,174.685464 94.4770118,174.736584 C94.4603668,174.791111 94.4426815,174.843367 94.4312381,174.899031 C94.420835,174.949015 94.4145931,174.998998 94.4083512,175.050118 C94.4000287,175.111462 94.3927466,175.17167 94.3917062,175.234149 C94.3906659,175.253461 94.3865047,175.270501 94.3865047,175.289813 L94.3865047,210.025126 L92.6668688,210.025126 L92.6668688,175.292085 C92.6668688,175.272773 92.6627075,175.255733 92.6616672,175.236421 C92.6595866,175.175078 92.6523044,175.113734 92.6450222,175.05239 C92.6387804,175.00127 92.6325385,174.950151 92.6221354,174.900167 C92.6106919,174.844503 92.5930066,174.791111 92.5763616,174.73772 C92.5597166,174.6866 92.5451523,174.63548 92.524346,174.587768 C92.5035398,174.537784 92.477532,174.491209 92.4525645,174.443497 C92.4265567,174.394649 92.4015892,174.345801 92.3714202,174.300362 C92.344372,174.259466 92.3131627,174.220842 92.2819533,174.182218 C92.2445021,174.135642 92.2070508,174.089067 92.1654384,174.047035 C92.1529546,174.034539 92.1435918,174.019771 92.1311081,174.007275 L89.5251263,171.53535 Z M88.5251263,215.499684 C88.5251263,214.686631 89.1786782,214.025126 89.9819569,214.025126 L90.4617383,214.025126 C90.4693886,214.025126 90.4759459,214.027339 90.4825033,214.027339 L95.5677492,214.027339 C95.5753995,214.027339 95.5819569,214.025126 95.5885142,214.025126 L96.0682957,214.025126 C96.8715744,214.025126 97.5251263,214.686631 97.5251263,215.499684 L97.5251263,217.025126 L88.5251263,217.025126 L88.5251263,215.499684 Z M95.5251263,257.025126 L92.5251263,257.025126 L92.5251263,228.71052 C92.5251263,227.781276 93.1980992,227.025126 94.0251263,227.025126 C94.8521533,227.025126 95.5251263,227.781276 95.5251263,228.71052 L95.5251263,257.025126 Z M101.525126,253.412909 C101.525126,254.85282 100.403691,256.025126 99.0238755,256.025126 L98.82875,256.025126 L98.82875,228.185365 C98.82875,228.068918 98.8169567,227.95583 98.7955144,227.846102 C98.6250476,225.240603 96.562293,223.168072 94.0245902,223.168072 C91.4868874,223.168072 89.4252049,225.239483 89.2547382,227.846102 C89.2332958,227.95583 89.2215025,228.068918 89.2215025,228.185365 L89.2215025,256.025126 L89.0263771,256.025126 C87.6465615,256.025126 86.5251263,254.85282 86.5251263,253.412909 L86.5251263,222.637343 C86.5251263,221.197433 87.6476336,220.025126 89.0263771,220.025126 L99.0238755,220.025126 C100.403691,220.025126 101.525126,221.197433 101.525126,222.637343 L101.525126,253.412909 Z" id="Shape-Copy-4" fill="#012A36" fill-rule="nonzero" transform="translate(93.525126, 209.025126) rotate(-45.000000) translate(-93.525126, -209.025126) "></path>
                                    <path d="M194.359002,101.496793 L194.359002,99.2233263 C194.359002,96.9237929 192.811705,95.0050596 190.736171,94.4723929 L190.736171,60.4327263 L193.715212,57.7671263 C194.19943,57.3341929 194.396418,56.6519263 194.219239,56.0161263 L190.672343,43.2570596 C190.469851,42.5271929 189.82276,42.0251263 189.085428,42.0251263 L183.964824,42.0251263 C183.228593,42.0251263 182.580401,42.5271929 182.37791,43.2570596 L178.831014,56.0161263 C178.653834,56.6519263 178.850823,57.3341929 179.335041,57.7671263 L182.314081,60.4327263 L182.314081,94.4723929 C180.239648,95.0050596 178.691251,96.9237929 178.691251,99.2233263 L178.691251,101.496793 C176.819309,102.507726 175.525126,104.505793 175.525126,106.83026 L175.525126,137.98106 C175.525126,141.31306 178.158611,144.025126 181.394067,144.025126 L191.656185,144.025126 C194.891641,144.025126 197.525126,141.31306 197.525126,137.98106 L197.525126,106.83026 C197.525126,104.505793 196.230944,102.507726 194.359002,101.496793 Z M182.525126,55.5353502 L185.280913,45.0251263 L187.76934,45.0251263 L190.525126,55.5353502 L187.922265,58.0061389 C187.908741,58.0186349 187.900419,58.0334028 187.887935,58.0458987 C187.846323,58.0879306 187.808871,58.1345063 187.77142,58.1810821 C187.740211,58.2197059 187.709001,58.2583298 187.681953,58.2992256 C187.651784,58.3446654 187.626817,58.3935132 187.600809,58.4423609 C187.575841,58.4900727 187.549834,58.5366485 187.529027,58.5854963 C187.508221,58.6343441 187.493657,58.6854638 187.477012,58.7365836 C187.460367,58.7911113 187.442682,58.8433671 187.431238,58.8990308 C187.420835,58.9490146 187.414593,58.9989984 187.408351,59.0501182 C187.400029,59.1114619 187.392747,59.1716696 187.391706,59.2341493 C187.390666,59.2534612 187.386505,59.2705011 187.386505,59.2898131 L187.386505,94.0251263 L185.666869,94.0251263 L185.666869,59.292085 C185.666869,59.2727731 185.662708,59.2557332 185.661667,59.2364213 C185.659587,59.1750776 185.652304,59.1137339 185.645022,59.0523901 C185.63878,59.0012704 185.632538,58.9501506 185.622135,58.9001668 C185.610692,58.8445031 185.593007,58.7911113 185.576362,58.7377196 C185.559717,58.6865998 185.545152,58.63548 185.524346,58.5877683 C185.50354,58.5377845 185.477532,58.4912087 185.452564,58.4434969 C185.426557,58.3946491 185.401589,58.3458014 185.37142,58.3003616 C185.344372,58.2594658 185.313163,58.2208419 185.281953,58.1822181 C185.244502,58.1356423 185.207051,58.0890665 185.165438,58.0470347 C185.152955,58.0345388 185.143592,58.0197709 185.131108,58.0072749 L182.525126,55.5353502 Z M181.525126,99.4996838 C181.525126,98.6866307 182.178678,98.0251263 182.981957,98.0251263 L183.461738,98.0251263 C183.469389,98.0251263 183.475946,98.0273387 183.482503,98.0273387 L188.567749,98.0273387 C188.575399,98.0273387 188.581957,98.0251263 188.588514,98.0251263 L189.068296,98.0251263 C189.871574,98.0251263 190.525126,98.6866307 190.525126,99.4996838 L190.525126,101.025126 L181.525126,101.025126 L181.525126,99.4996838 Z M188.525126,141.025126 L185.525126,141.025126 L185.525126,112.71052 C185.525126,111.781276 186.198099,111.025126 187.025126,111.025126 C187.852153,111.025126 188.525126,111.781276 188.525126,112.71052 L188.525126,141.025126 Z M194.525126,137.412909 C194.525126,138.85282 193.403691,140.025126 192.023875,140.025126 L191.82875,140.025126 L191.82875,112.185365 C191.82875,112.068918 191.816957,111.95583 191.795514,111.846102 C191.625048,109.240603 189.562293,107.168072 187.02459,107.168072 C184.486887,107.168072 182.425205,109.239483 182.254738,111.846102 C182.233296,111.95583 182.221503,112.068918 182.221503,112.185365 L182.221503,140.025126 L182.026377,140.025126 C180.646561,140.025126 179.525126,138.85282 179.525126,137.412909 L179.525126,106.637343 C179.525126,105.197433 180.647634,104.025126 182.026377,104.025126 L192.023875,104.025126 C193.403691,104.025126 194.525126,105.197433 194.525126,106.637343 L194.525126,137.412909 Z" id="Shape-Copy-2" fill="#012A36" fill-rule="nonzero" transform="translate(186.525126, 93.025126) rotate(-45.000000) translate(-186.525126, -93.025126) "></path>
                                    <path d="M194.359002,217.496793 L194.359002,215.223326 C194.359002,212.923793 192.811705,211.00506 190.736171,210.472393 L190.736171,176.432726 L193.715212,173.767126 C194.19943,173.334193 194.396418,172.651926 194.219239,172.016126 L190.672343,159.25706 C190.469851,158.527193 189.82276,158.025126 189.085428,158.025126 L183.964824,158.025126 C183.228593,158.025126 182.580401,158.527193 182.37791,159.25706 L178.831014,172.016126 C178.653834,172.651926 178.850823,173.334193 179.335041,173.767126 L182.314081,176.432726 L182.314081,210.472393 C180.239648,211.00506 178.691251,212.923793 178.691251,215.223326 L178.691251,217.496793 C176.819309,218.507726 175.525126,220.505793 175.525126,222.83026 L175.525126,253.98106 C175.525126,257.31306 178.158611,260.025126 181.394067,260.025126 L191.656185,260.025126 C194.891641,260.025126 197.525126,257.31306 197.525126,253.98106 L197.525126,222.83026 C197.525126,220.505793 196.230944,218.507726 194.359002,217.496793 Z M182.525126,171.53535 L185.280913,161.025126 L187.76934,161.025126 L190.525126,171.53535 L187.922265,174.006139 C187.908741,174.018635 187.900419,174.033403 187.887935,174.045899 C187.846323,174.087931 187.808871,174.134506 187.77142,174.181082 C187.740211,174.219706 187.709001,174.25833 187.681953,174.299226 C187.651784,174.344665 187.626817,174.393513 187.600809,174.442361 C187.575841,174.490073 187.549834,174.536648 187.529027,174.585496 C187.508221,174.634344 187.493657,174.685464 187.477012,174.736584 C187.460367,174.791111 187.442682,174.843367 187.431238,174.899031 C187.420835,174.949015 187.414593,174.998998 187.408351,175.050118 C187.400029,175.111462 187.392747,175.17167 187.391706,175.234149 C187.390666,175.253461 187.386505,175.270501 187.386505,175.289813 L187.386505,210.025126 L185.666869,210.025126 L185.666869,175.292085 C185.666869,175.272773 185.662708,175.255733 185.661667,175.236421 C185.659587,175.175078 185.652304,175.113734 185.645022,175.05239 C185.63878,175.00127 185.632538,174.950151 185.622135,174.900167 C185.610692,174.844503 185.593007,174.791111 185.576362,174.73772 C185.559717,174.6866 185.545152,174.63548 185.524346,174.587768 C185.50354,174.537784 185.477532,174.491209 185.452564,174.443497 C185.426557,174.394649 185.401589,174.345801 185.37142,174.300362 C185.344372,174.259466 185.313163,174.220842 185.281953,174.182218 C185.244502,174.135642 185.207051,174.089067 185.165438,174.047035 C185.152955,174.034539 185.143592,174.019771 185.131108,174.007275 L182.525126,171.53535 Z M181.525126,215.499684 C181.525126,214.686631 182.178678,214.025126 182.981957,214.025126 L183.461738,214.025126 C183.469389,214.025126 183.475946,214.027339 183.482503,214.027339 L188.567749,214.027339 C188.575399,214.027339 188.581957,214.025126 188.588514,214.025126 L189.068296,214.025126 C189.871574,214.025126 190.525126,214.686631 190.525126,215.499684 L190.525126,217.025126 L181.525126,217.025126 L181.525126,215.499684 Z M188.525126,257.025126 L185.525126,257.025126 L185.525126,228.71052 C185.525126,227.781276 186.198099,227.025126 187.025126,227.025126 C187.852153,227.025126 188.525126,227.781276 188.525126,228.71052 L188.525126,257.025126 Z M194.525126,253.412909 C194.525126,254.85282 193.403691,256.025126 192.023875,256.025126 L191.82875,256.025126 L191.82875,228.185365 C191.82875,228.068918 191.816957,227.95583 191.795514,227.846102 C191.625048,225.240603 189.562293,223.168072 187.02459,223.168072 C184.486887,223.168072 182.425205,225.239483 182.254738,227.846102 C182.233296,227.95583 182.221503,228.068918 182.221503,228.185365 L182.221503,256.025126 L182.026377,256.025126 C180.646561,256.025126 179.525126,254.85282 179.525126,253.412909 L179.525126,222.637343 C179.525126,221.197433 180.647634,220.025126 182.026377,220.025126 L192.023875,220.025126 C193.403691,220.025126 194.525126,221.197433 194.525126,222.637343 L194.525126,253.412909 Z" id="Shape-Copy-5" fill="#012A36" fill-rule="nonzero" transform="translate(186.525126, 209.025126) rotate(-45.000000) translate(-186.525126, -209.025126) "></path>
                                    <g id="Group-4" stroke-width="1" fill="none" fill-rule="evenodd" transform="translate(47.000000, 46.500000) rotate(-315.000000) translate(-47.000000, -46.500000) translate(31.000000, -3.000000)">
                                        <path d="M23.2338823,0.1771 C23.2185435,0.1694 23.2032047,0.1661 23.1878659,0.1595 C23.1308933,0.1331 23.072825,0.1122 23.0125655,0.0924 C22.9676447,0.077 22.922724,0.0616 22.8767076,0.0495 C22.8230219,0.0363 22.7682405,0.0297 22.7134591,0.022 C22.6586777,0.0143 22.6038963,0.0077 22.5480193,0.0055 C22.5293936,0.0055 22.5118636,0 22.4932379,0 C22.4592735,0 22.4275003,0.0077 22.3935358,0.0099 C22.3365632,0.0132 22.2806861,0.0176 22.2248091,0.0275 C22.172219,0.0363 22.1207245,0.0484 22.0703256,0.0627 C22.0188311,0.077 21.9673366,0.0913 21.9169377,0.11 C21.8687301,0.1287 21.8216181,0.1496 21.7756017,0.1727 C21.7252029,0.1969 21.6769952,0.2233 21.6298832,0.2519 C21.589345,0.2772 21.550998,0.3047 21.5126511,0.3333 C21.4655391,0.3685 21.4195227,0.4059 21.3756976,0.4466 C21.3417331,0.4785 21.3099599,0.5126 21.2792824,0.5467 C21.2398398,0.5907 21.2025884,0.6347 21.1664327,0.6831 C21.1368508,0.7249 21.1105557,0.7689 21.0842606,0.8129 C21.065635,0.8448 21.0415311,0.8723 21.0250967,0.9053 C21.0152361,0.924 21.0119492,0.9438 21.0031842,0.9625 C20.9823672,1.0076 20.9659328,1.0549 20.9494984,1.1022 C20.9286815,1.1605 20.9089602,1.2188 20.894717,1.2782 C20.885952,1.3178 20.8804739,1.3574 20.8749957,1.3981 C20.8640394,1.4685 20.8552744,1.5389 20.8541788,1.6104 C20.8541788,1.6236 20.8497963,1.6368 20.8497963,1.65 L20.8497963,10.2828 C20.8497963,11.7777 19.6402232,12.9954 18.154552,12.9954 L13.8421611,12.9954 C12.3564899,12.9954 11.1469168,11.7788 11.1469168,10.2828 L11.1469168,1.65 C11.1469168,1.6445 11.1458212,1.6401 11.1458212,1.6346 C11.1447256,1.54 11.1348649,1.4454 11.1173349,1.3497 C11.114048,1.3332 11.1129524,1.3178 11.1085699,1.3013 C11.0910398,1.2177 11.0636491,1.1363 11.0318759,1.0538 C11.0231109,1.0307 11.0154415,1.0076 11.0055809,0.9845 C10.9935289,0.957 10.9869552,0.9284 10.9738076,0.902 C10.9497038,0.8558 10.9190263,0.8162 10.8916356,0.7733 C10.8762968,0.7491 10.8620536,0.726 10.8467148,0.7029 C10.8006985,0.6369 10.7502996,0.5764 10.6955182,0.5192 C10.6768925,0.4994 10.6582669,0.4796 10.6396412,0.4609 C10.5837642,0.407 10.5256959,0.3597 10.4632451,0.3146 C10.4380457,0.2959 10.4128462,0.2783 10.3854555,0.2607 C10.325196,0.2222 10.2627452,0.1892 10.1981032,0.1584 C10.1641387,0.143 10.1312699,0.1276 10.0962098,0.1133 C10.0326634,0.0891 9.96911699,0.0693 9.9022837,0.0528 C9.86393673,0.0429 9.82558976,0.0341 9.78505153,0.0264 C9.71931386,0.0165 9.65138494,0.011 9.58236039,0.0077 C9.55606533,0.0066 9.53086589,0 9.50457082,0 C9.48923203,0 9.47498887,0.0044 9.45965008,0.0044 C9.3971993,0.0066 9.33584415,0.0143 9.27448899,0.0231 C9.22299449,0.0308 9.17149998,0.0374 9.12110111,0.0495 C9.07837162,0.0605 9.03673777,0.0748 8.99400829,0.0891 C8.92607936,0.1111 8.8603417,0.1364 8.79569966,0.1672 C8.78474338,0.1727 8.77378711,0.1738 8.76392646,0.1793 C3.35809909,2.937 0,8.4271 0,14.509 C0,20.1135 2.88478789,25.256 7.59050912,28.1655 L7.58064847,90.5553 C7.58064847,92.8103 8.45495943,94.9322 10.0436197,96.5261 C11.6322799,98.1211 13.7435546,99 15.9906872,99 C20.6251926,99 24.397439,95.2171 24.3996302,90.5674 C24.4051084,76.7063 24.4182559,40.0323 24.4193515,28.1633 C29.118499,25.2428 32,20.1003 32,14.5101 C32,8.415 28.6408053,2.9238 23.2338823,0.1771 Z M22.0002054,25.7598 C21.9761016,25.773 21.9563803,25.7917 21.9322765,25.806 C21.8840689,25.8357 21.8380525,25.8665 21.7931318,25.9006 C21.7493067,25.9336 21.7076728,25.9677 21.6682302,26.004 C21.6309789,26.0381 21.5959188,26.0744 21.5619543,26.1129 C21.550998,26.125 21.5389461,26.1349 21.5290855,26.147 L19.3893245,26.1536 C18.4810491,26.1558 17.7480741,26.8972 17.7502653,27.8091 C17.7524566,28.7177 18.4876228,29.4536 19.393707,29.4536 C19.3948026,29.4536 19.3969939,29.4536 19.3980895,29.4536 L21.1324682,29.4481 C21.1313726,42.4842 21.1193207,77.176 21.1138426,90.5663 C21.1127469,93.3966 18.8141199,95.7 15.9917828,95.7 C14.6233437,95.7 13.3370767,95.1654 12.3696374,94.193 C11.4021981,93.2217 10.869723,91.9292 10.869723,90.5553 L10.878488,27.214 C10.878488,27.1865 10.8719143,27.1612 10.8708186,27.1348 C10.8675318,27.0765 10.8620536,27.0182 10.8532886,26.961 C10.8456192,26.9093 10.8346629,26.8576 10.822611,26.8081 C10.8094635,26.7564 10.7941247,26.7069 10.775499,26.6563 C10.7568734,26.6057 10.7371521,26.5562 10.7141439,26.5078 C10.6911357,26.4594 10.6659362,26.4143 10.6385456,26.3681 C10.6111549,26.323 10.5837642,26.2801 10.5530866,26.2383 C10.5213134,26.1943 10.4862533,26.1525 10.449002,26.1118 C10.4139419,26.0733 10.3777861,26.0359 10.3394392,26.0007 C10.2999966,25.9644 10.2594583,25.9314 10.2167289,25.8995 C10.1707125,25.8654 10.1236005,25.8335 10.0742973,25.8038 C10.0501934,25.7895 10.0304721,25.7708 10.0063683,25.7576 C5.86160852,23.54 3.28688328,19.2302 3.28688328,14.509 C3.28688328,10.6524 4.99058445,7.0994 7.86003355,4.7047 L7.86003355,10.2817 C7.86003355,13.5971 10.5432259,16.2943 13.8421611,16.2943 L18.154552,16.2943 C21.4534872,16.2943 24.1366796,13.5971 24.1366796,10.2817 L24.1366796,4.6981 C27.0083199,7.0862 28.7131167,10.6436 28.7131167,14.5101 C28.7131167,19.2192 26.1405827,23.5301 22.0002054,25.7598 Z" id="Shape" fill="#012A36" fill-rule="nonzero"></path>
                                        <circle id="Oval" fill="#012A36" fill-rule="nonzero" cx="16" cy="90" r="3"></circle>
                                    </g>
                                    <g id="Group-4-Copy-3" stroke-width="1" fill="none" fill-rule="evenodd" transform="translate(47.000000, 162.500000) rotate(-315.000000) translate(-47.000000, -162.500000) translate(31.000000, 113.000000)">
                                        <path d="M23.2338823,0.1771 C23.2185435,0.1694 23.2032047,0.1661 23.1878659,0.1595 C23.1308933,0.1331 23.072825,0.1122 23.0125655,0.0924 C22.9676447,0.077 22.922724,0.0616 22.8767076,0.0495 C22.8230219,0.0363 22.7682405,0.0297 22.7134591,0.022 C22.6586777,0.0143 22.6038963,0.0077 22.5480193,0.0055 C22.5293936,0.0055 22.5118636,0 22.4932379,0 C22.4592735,0 22.4275003,0.0077 22.3935358,0.0099 C22.3365632,0.0132 22.2806861,0.0176 22.2248091,0.0275 C22.172219,0.0363 22.1207245,0.0484 22.0703256,0.0627 C22.0188311,0.077 21.9673366,0.0913 21.9169377,0.11 C21.8687301,0.1287 21.8216181,0.1496 21.7756017,0.1727 C21.7252029,0.1969 21.6769952,0.2233 21.6298832,0.2519 C21.589345,0.2772 21.550998,0.3047 21.5126511,0.3333 C21.4655391,0.3685 21.4195227,0.4059 21.3756976,0.4466 C21.3417331,0.4785 21.3099599,0.5126 21.2792824,0.5467 C21.2398398,0.5907 21.2025884,0.6347 21.1664327,0.6831 C21.1368508,0.7249 21.1105557,0.7689 21.0842606,0.8129 C21.065635,0.8448 21.0415311,0.8723 21.0250967,0.9053 C21.0152361,0.924 21.0119492,0.9438 21.0031842,0.9625 C20.9823672,1.0076 20.9659328,1.0549 20.9494984,1.1022 C20.9286815,1.1605 20.9089602,1.2188 20.894717,1.2782 C20.885952,1.3178 20.8804739,1.3574 20.8749957,1.3981 C20.8640394,1.4685 20.8552744,1.5389 20.8541788,1.6104 C20.8541788,1.6236 20.8497963,1.6368 20.8497963,1.65 L20.8497963,10.2828 C20.8497963,11.7777 19.6402232,12.9954 18.154552,12.9954 L13.8421611,12.9954 C12.3564899,12.9954 11.1469168,11.7788 11.1469168,10.2828 L11.1469168,1.65 C11.1469168,1.6445 11.1458212,1.6401 11.1458212,1.6346 C11.1447256,1.54 11.1348649,1.4454 11.1173349,1.3497 C11.114048,1.3332 11.1129524,1.3178 11.1085699,1.3013 C11.0910398,1.2177 11.0636491,1.1363 11.0318759,1.0538 C11.0231109,1.0307 11.0154415,1.0076 11.0055809,0.9845 C10.9935289,0.957 10.9869552,0.9284 10.9738076,0.902 C10.9497038,0.8558 10.9190263,0.8162 10.8916356,0.7733 C10.8762968,0.7491 10.8620536,0.726 10.8467148,0.7029 C10.8006985,0.6369 10.7502996,0.5764 10.6955182,0.5192 C10.6768925,0.4994 10.6582669,0.4796 10.6396412,0.4609 C10.5837642,0.407 10.5256959,0.3597 10.4632451,0.3146 C10.4380457,0.2959 10.4128462,0.2783 10.3854555,0.2607 C10.325196,0.2222 10.2627452,0.1892 10.1981032,0.1584 C10.1641387,0.143 10.1312699,0.1276 10.0962098,0.1133 C10.0326634,0.0891 9.96911699,0.0693 9.9022837,0.0528 C9.86393673,0.0429 9.82558976,0.0341 9.78505153,0.0264 C9.71931386,0.0165 9.65138494,0.011 9.58236039,0.0077 C9.55606533,0.0066 9.53086589,0 9.50457082,0 C9.48923203,0 9.47498887,0.0044 9.45965008,0.0044 C9.3971993,0.0066 9.33584415,0.0143 9.27448899,0.0231 C9.22299449,0.0308 9.17149998,0.0374 9.12110111,0.0495 C9.07837162,0.0605 9.03673777,0.0748 8.99400829,0.0891 C8.92607936,0.1111 8.8603417,0.1364 8.79569966,0.1672 C8.78474338,0.1727 8.77378711,0.1738 8.76392646,0.1793 C3.35809909,2.937 0,8.4271 0,14.509 C0,20.1135 2.88478789,25.256 7.59050912,28.1655 L7.58064847,90.5553 C7.58064847,92.8103 8.45495943,94.9322 10.0436197,96.5261 C11.6322799,98.1211 13.7435546,99 15.9906872,99 C20.6251926,99 24.397439,95.2171 24.3996302,90.5674 C24.4051084,76.7063 24.4182559,40.0323 24.4193515,28.1633 C29.118499,25.2428 32,20.1003 32,14.5101 C32,8.415 28.6408053,2.9238 23.2338823,0.1771 Z M22.0002054,25.7598 C21.9761016,25.773 21.9563803,25.7917 21.9322765,25.806 C21.8840689,25.8357 21.8380525,25.8665 21.7931318,25.9006 C21.7493067,25.9336 21.7076728,25.9677 21.6682302,26.004 C21.6309789,26.0381 21.5959188,26.0744 21.5619543,26.1129 C21.550998,26.125 21.5389461,26.1349 21.5290855,26.147 L19.3893245,26.1536 C18.4810491,26.1558 17.7480741,26.8972 17.7502653,27.8091 C17.7524566,28.7177 18.4876228,29.4536 19.393707,29.4536 C19.3948026,29.4536 19.3969939,29.4536 19.3980895,29.4536 L21.1324682,29.4481 C21.1313726,42.4842 21.1193207,77.176 21.1138426,90.5663 C21.1127469,93.3966 18.8141199,95.7 15.9917828,95.7 C14.6233437,95.7 13.3370767,95.1654 12.3696374,94.193 C11.4021981,93.2217 10.869723,91.9292 10.869723,90.5553 L10.878488,27.214 C10.878488,27.1865 10.8719143,27.1612 10.8708186,27.1348 C10.8675318,27.0765 10.8620536,27.0182 10.8532886,26.961 C10.8456192,26.9093 10.8346629,26.8576 10.822611,26.8081 C10.8094635,26.7564 10.7941247,26.7069 10.775499,26.6563 C10.7568734,26.6057 10.7371521,26.5562 10.7141439,26.5078 C10.6911357,26.4594 10.6659362,26.4143 10.6385456,26.3681 C10.6111549,26.323 10.5837642,26.2801 10.5530866,26.2383 C10.5213134,26.1943 10.4862533,26.1525 10.449002,26.1118 C10.4139419,26.0733 10.3777861,26.0359 10.3394392,26.0007 C10.2999966,25.9644 10.2594583,25.9314 10.2167289,25.8995 C10.1707125,25.8654 10.1236005,25.8335 10.0742973,25.8038 C10.0501934,25.7895 10.0304721,25.7708 10.0063683,25.7576 C5.86160852,23.54 3.28688328,19.2302 3.28688328,14.509 C3.28688328,10.6524 4.99058445,7.0994 7.86003355,4.7047 L7.86003355,10.2817 C7.86003355,13.5971 10.5432259,16.2943 13.8421611,16.2943 L18.154552,16.2943 C21.4534872,16.2943 24.1366796,13.5971 24.1366796,10.2817 L24.1366796,4.6981 C27.0083199,7.0862 28.7131167,10.6436 28.7131167,14.5101 C28.7131167,19.2192 26.1405827,23.5301 22.0002054,25.7598 Z" id="Shape" fill="#012A36" fill-rule="nonzero"></path>
                                        <circle id="Oval" fill="#012A36" fill-rule="nonzero" cx="16" cy="90" r="3"></circle>
                                    </g>
                                    <g id="Group-4-Copy" stroke-width="1" fill="none" fill-rule="evenodd" transform="translate(140.000000, 46.500000) rotate(-315.000000) translate(-140.000000, -46.500000) translate(124.000000, -3.000000)">
                                        <path d="M23.2338823,0.1771 C23.2185435,0.1694 23.2032047,0.1661 23.1878659,0.1595 C23.1308933,0.1331 23.072825,0.1122 23.0125655,0.0924 C22.9676447,0.077 22.922724,0.0616 22.8767076,0.0495 C22.8230219,0.0363 22.7682405,0.0297 22.7134591,0.022 C22.6586777,0.0143 22.6038963,0.0077 22.5480193,0.0055 C22.5293936,0.0055 22.5118636,0 22.4932379,0 C22.4592735,0 22.4275003,0.0077 22.3935358,0.0099 C22.3365632,0.0132 22.2806861,0.0176 22.2248091,0.0275 C22.172219,0.0363 22.1207245,0.0484 22.0703256,0.0627 C22.0188311,0.077 21.9673366,0.0913 21.9169377,0.11 C21.8687301,0.1287 21.8216181,0.1496 21.7756017,0.1727 C21.7252029,0.1969 21.6769952,0.2233 21.6298832,0.2519 C21.589345,0.2772 21.550998,0.3047 21.5126511,0.3333 C21.4655391,0.3685 21.4195227,0.4059 21.3756976,0.4466 C21.3417331,0.4785 21.3099599,0.5126 21.2792824,0.5467 C21.2398398,0.5907 21.2025884,0.6347 21.1664327,0.6831 C21.1368508,0.7249 21.1105557,0.7689 21.0842606,0.8129 C21.065635,0.8448 21.0415311,0.8723 21.0250967,0.9053 C21.0152361,0.924 21.0119492,0.9438 21.0031842,0.9625 C20.9823672,1.0076 20.9659328,1.0549 20.9494984,1.1022 C20.9286815,1.1605 20.9089602,1.2188 20.894717,1.2782 C20.885952,1.3178 20.8804739,1.3574 20.8749957,1.3981 C20.8640394,1.4685 20.8552744,1.5389 20.8541788,1.6104 C20.8541788,1.6236 20.8497963,1.6368 20.8497963,1.65 L20.8497963,10.2828 C20.8497963,11.7777 19.6402232,12.9954 18.154552,12.9954 L13.8421611,12.9954 C12.3564899,12.9954 11.1469168,11.7788 11.1469168,10.2828 L11.1469168,1.65 C11.1469168,1.6445 11.1458212,1.6401 11.1458212,1.6346 C11.1447256,1.54 11.1348649,1.4454 11.1173349,1.3497 C11.114048,1.3332 11.1129524,1.3178 11.1085699,1.3013 C11.0910398,1.2177 11.0636491,1.1363 11.0318759,1.0538 C11.0231109,1.0307 11.0154415,1.0076 11.0055809,0.9845 C10.9935289,0.957 10.9869552,0.9284 10.9738076,0.902 C10.9497038,0.8558 10.9190263,0.8162 10.8916356,0.7733 C10.8762968,0.7491 10.8620536,0.726 10.8467148,0.7029 C10.8006985,0.6369 10.7502996,0.5764 10.6955182,0.5192 C10.6768925,0.4994 10.6582669,0.4796 10.6396412,0.4609 C10.5837642,0.407 10.5256959,0.3597 10.4632451,0.3146 C10.4380457,0.2959 10.4128462,0.2783 10.3854555,0.2607 C10.325196,0.2222 10.2627452,0.1892 10.1981032,0.1584 C10.1641387,0.143 10.1312699,0.1276 10.0962098,0.1133 C10.0326634,0.0891 9.96911699,0.0693 9.9022837,0.0528 C9.86393673,0.0429 9.82558976,0.0341 9.78505153,0.0264 C9.71931386,0.0165 9.65138494,0.011 9.58236039,0.0077 C9.55606533,0.0066 9.53086589,0 9.50457082,0 C9.48923203,0 9.47498887,0.0044 9.45965008,0.0044 C9.3971993,0.0066 9.33584415,0.0143 9.27448899,0.0231 C9.22299449,0.0308 9.17149998,0.0374 9.12110111,0.0495 C9.07837162,0.0605 9.03673777,0.0748 8.99400829,0.0891 C8.92607936,0.1111 8.8603417,0.1364 8.79569966,0.1672 C8.78474338,0.1727 8.77378711,0.1738 8.76392646,0.1793 C3.35809909,2.937 0,8.4271 0,14.509 C0,20.1135 2.88478789,25.256 7.59050912,28.1655 L7.58064847,90.5553 C7.58064847,92.8103 8.45495943,94.9322 10.0436197,96.5261 C11.6322799,98.1211 13.7435546,99 15.9906872,99 C20.6251926,99 24.397439,95.2171 24.3996302,90.5674 C24.4051084,76.7063 24.4182559,40.0323 24.4193515,28.1633 C29.118499,25.2428 32,20.1003 32,14.5101 C32,8.415 28.6408053,2.9238 23.2338823,0.1771 Z M22.0002054,25.7598 C21.9761016,25.773 21.9563803,25.7917 21.9322765,25.806 C21.8840689,25.8357 21.8380525,25.8665 21.7931318,25.9006 C21.7493067,25.9336 21.7076728,25.9677 21.6682302,26.004 C21.6309789,26.0381 21.5959188,26.0744 21.5619543,26.1129 C21.550998,26.125 21.5389461,26.1349 21.5290855,26.147 L19.3893245,26.1536 C18.4810491,26.1558 17.7480741,26.8972 17.7502653,27.8091 C17.7524566,28.7177 18.4876228,29.4536 19.393707,29.4536 C19.3948026,29.4536 19.3969939,29.4536 19.3980895,29.4536 L21.1324682,29.4481 C21.1313726,42.4842 21.1193207,77.176 21.1138426,90.5663 C21.1127469,93.3966 18.8141199,95.7 15.9917828,95.7 C14.6233437,95.7 13.3370767,95.1654 12.3696374,94.193 C11.4021981,93.2217 10.869723,91.9292 10.869723,90.5553 L10.878488,27.214 C10.878488,27.1865 10.8719143,27.1612 10.8708186,27.1348 C10.8675318,27.0765 10.8620536,27.0182 10.8532886,26.961 C10.8456192,26.9093 10.8346629,26.8576 10.822611,26.8081 C10.8094635,26.7564 10.7941247,26.7069 10.775499,26.6563 C10.7568734,26.6057 10.7371521,26.5562 10.7141439,26.5078 C10.6911357,26.4594 10.6659362,26.4143 10.6385456,26.3681 C10.6111549,26.323 10.5837642,26.2801 10.5530866,26.2383 C10.5213134,26.1943 10.4862533,26.1525 10.449002,26.1118 C10.4139419,26.0733 10.3777861,26.0359 10.3394392,26.0007 C10.2999966,25.9644 10.2594583,25.9314 10.2167289,25.8995 C10.1707125,25.8654 10.1236005,25.8335 10.0742973,25.8038 C10.0501934,25.7895 10.0304721,25.7708 10.0063683,25.7576 C5.86160852,23.54 3.28688328,19.2302 3.28688328,14.509 C3.28688328,10.6524 4.99058445,7.0994 7.86003355,4.7047 L7.86003355,10.2817 C7.86003355,13.5971 10.5432259,16.2943 13.8421611,16.2943 L18.154552,16.2943 C21.4534872,16.2943 24.1366796,13.5971 24.1366796,10.2817 L24.1366796,4.6981 C27.0083199,7.0862 28.7131167,10.6436 28.7131167,14.5101 C28.7131167,19.2192 26.1405827,23.5301 22.0002054,25.7598 Z" id="Shape" fill="#012A36" fill-rule="nonzero"></path>
                                        <circle id="Oval" fill="#012A36" fill-rule="nonzero" cx="16" cy="90" r="3"></circle>
                                    </g>
                                    <g id="Group-4-Copy-4" stroke-width="1" fill="none" fill-rule="evenodd" transform="translate(140.000000, 162.500000) rotate(-315.000000) translate(-140.000000, -162.500000) translate(124.000000, 113.000000)">
                                        <path d="M23.2338823,0.1771 C23.2185435,0.1694 23.2032047,0.1661 23.1878659,0.1595 C23.1308933,0.1331 23.072825,0.1122 23.0125655,0.0924 C22.9676447,0.077 22.922724,0.0616 22.8767076,0.0495 C22.8230219,0.0363 22.7682405,0.0297 22.7134591,0.022 C22.6586777,0.0143 22.6038963,0.0077 22.5480193,0.0055 C22.5293936,0.0055 22.5118636,0 22.4932379,0 C22.4592735,0 22.4275003,0.0077 22.3935358,0.0099 C22.3365632,0.0132 22.2806861,0.0176 22.2248091,0.0275 C22.172219,0.0363 22.1207245,0.0484 22.0703256,0.0627 C22.0188311,0.077 21.9673366,0.0913 21.9169377,0.11 C21.8687301,0.1287 21.8216181,0.1496 21.7756017,0.1727 C21.7252029,0.1969 21.6769952,0.2233 21.6298832,0.2519 C21.589345,0.2772 21.550998,0.3047 21.5126511,0.3333 C21.4655391,0.3685 21.4195227,0.4059 21.3756976,0.4466 C21.3417331,0.4785 21.3099599,0.5126 21.2792824,0.5467 C21.2398398,0.5907 21.2025884,0.6347 21.1664327,0.6831 C21.1368508,0.7249 21.1105557,0.7689 21.0842606,0.8129 C21.065635,0.8448 21.0415311,0.8723 21.0250967,0.9053 C21.0152361,0.924 21.0119492,0.9438 21.0031842,0.9625 C20.9823672,1.0076 20.9659328,1.0549 20.9494984,1.1022 C20.9286815,1.1605 20.9089602,1.2188 20.894717,1.2782 C20.885952,1.3178 20.8804739,1.3574 20.8749957,1.3981 C20.8640394,1.4685 20.8552744,1.5389 20.8541788,1.6104 C20.8541788,1.6236 20.8497963,1.6368 20.8497963,1.65 L20.8497963,10.2828 C20.8497963,11.7777 19.6402232,12.9954 18.154552,12.9954 L13.8421611,12.9954 C12.3564899,12.9954 11.1469168,11.7788 11.1469168,10.2828 L11.1469168,1.65 C11.1469168,1.6445 11.1458212,1.6401 11.1458212,1.6346 C11.1447256,1.54 11.1348649,1.4454 11.1173349,1.3497 C11.114048,1.3332 11.1129524,1.3178 11.1085699,1.3013 C11.0910398,1.2177 11.0636491,1.1363 11.0318759,1.0538 C11.0231109,1.0307 11.0154415,1.0076 11.0055809,0.9845 C10.9935289,0.957 10.9869552,0.9284 10.9738076,0.902 C10.9497038,0.8558 10.9190263,0.8162 10.8916356,0.7733 C10.8762968,0.7491 10.8620536,0.726 10.8467148,0.7029 C10.8006985,0.6369 10.7502996,0.5764 10.6955182,0.5192 C10.6768925,0.4994 10.6582669,0.4796 10.6396412,0.4609 C10.5837642,0.407 10.5256959,0.3597 10.4632451,0.3146 C10.4380457,0.2959 10.4128462,0.2783 10.3854555,0.2607 C10.325196,0.2222 10.2627452,0.1892 10.1981032,0.1584 C10.1641387,0.143 10.1312699,0.1276 10.0962098,0.1133 C10.0326634,0.0891 9.96911699,0.0693 9.9022837,0.0528 C9.86393673,0.0429 9.82558976,0.0341 9.78505153,0.0264 C9.71931386,0.0165 9.65138494,0.011 9.58236039,0.0077 C9.55606533,0.0066 9.53086589,0 9.50457082,0 C9.48923203,0 9.47498887,0.0044 9.45965008,0.0044 C9.3971993,0.0066 9.33584415,0.0143 9.27448899,0.0231 C9.22299449,0.0308 9.17149998,0.0374 9.12110111,0.0495 C9.07837162,0.0605 9.03673777,0.0748 8.99400829,0.0891 C8.92607936,0.1111 8.8603417,0.1364 8.79569966,0.1672 C8.78474338,0.1727 8.77378711,0.1738 8.76392646,0.1793 C3.35809909,2.937 0,8.4271 0,14.509 C0,20.1135 2.88478789,25.256 7.59050912,28.1655 L7.58064847,90.5553 C7.58064847,92.8103 8.45495943,94.9322 10.0436197,96.5261 C11.6322799,98.1211 13.7435546,99 15.9906872,99 C20.6251926,99 24.397439,95.2171 24.3996302,90.5674 C24.4051084,76.7063 24.4182559,40.0323 24.4193515,28.1633 C29.118499,25.2428 32,20.1003 32,14.5101 C32,8.415 28.6408053,2.9238 23.2338823,0.1771 Z M22.0002054,25.7598 C21.9761016,25.773 21.9563803,25.7917 21.9322765,25.806 C21.8840689,25.8357 21.8380525,25.8665 21.7931318,25.9006 C21.7493067,25.9336 21.7076728,25.9677 21.6682302,26.004 C21.6309789,26.0381 21.5959188,26.0744 21.5619543,26.1129 C21.550998,26.125 21.5389461,26.1349 21.5290855,26.147 L19.3893245,26.1536 C18.4810491,26.1558 17.7480741,26.8972 17.7502653,27.8091 C17.7524566,28.7177 18.4876228,29.4536 19.393707,29.4536 C19.3948026,29.4536 19.3969939,29.4536 19.3980895,29.4536 L21.1324682,29.4481 C21.1313726,42.4842 21.1193207,77.176 21.1138426,90.5663 C21.1127469,93.3966 18.8141199,95.7 15.9917828,95.7 C14.6233437,95.7 13.3370767,95.1654 12.3696374,94.193 C11.4021981,93.2217 10.869723,91.9292 10.869723,90.5553 L10.878488,27.214 C10.878488,27.1865 10.8719143,27.1612 10.8708186,27.1348 C10.8675318,27.0765 10.8620536,27.0182 10.8532886,26.961 C10.8456192,26.9093 10.8346629,26.8576 10.822611,26.8081 C10.8094635,26.7564 10.7941247,26.7069 10.775499,26.6563 C10.7568734,26.6057 10.7371521,26.5562 10.7141439,26.5078 C10.6911357,26.4594 10.6659362,26.4143 10.6385456,26.3681 C10.6111549,26.323 10.5837642,26.2801 10.5530866,26.2383 C10.5213134,26.1943 10.4862533,26.1525 10.449002,26.1118 C10.4139419,26.0733 10.3777861,26.0359 10.3394392,26.0007 C10.2999966,25.9644 10.2594583,25.9314 10.2167289,25.8995 C10.1707125,25.8654 10.1236005,25.8335 10.0742973,25.8038 C10.0501934,25.7895 10.0304721,25.7708 10.0063683,25.7576 C5.86160852,23.54 3.28688328,19.2302 3.28688328,14.509 C3.28688328,10.6524 4.99058445,7.0994 7.86003355,4.7047 L7.86003355,10.2817 C7.86003355,13.5971 10.5432259,16.2943 13.8421611,16.2943 L18.154552,16.2943 C21.4534872,16.2943 24.1366796,13.5971 24.1366796,10.2817 L24.1366796,4.6981 C27.0083199,7.0862 28.7131167,10.6436 28.7131167,14.5101 C28.7131167,19.2192 26.1405827,23.5301 22.0002054,25.7598 Z" id="Shape" fill="#012A36" fill-rule="nonzero"></path>
                                        <circle id="Oval" fill="#012A36" fill-rule="nonzero" cx="16" cy="90" r="3"></circle>
                                    </g>
                                    <path d="M287.359002,101.496793 L287.359002,99.2233263 C287.359002,96.9237929 285.811705,95.0050596 283.736171,94.4723929 L283.736171,60.4327263 L286.715212,57.7671263 C287.19943,57.3341929 287.396418,56.6519263 287.219239,56.0161263 L283.672343,43.2570596 C283.469851,42.5271929 282.82276,42.0251263 282.085428,42.0251263 L276.964824,42.0251263 C276.228593,42.0251263 275.580401,42.5271929 275.37791,43.2570596 L271.831014,56.0161263 C271.653834,56.6519263 271.850823,57.3341929 272.335041,57.7671263 L275.314081,60.4327263 L275.314081,94.4723929 C273.239648,95.0050596 271.691251,96.9237929 271.691251,99.2233263 L271.691251,101.496793 C269.819309,102.507726 268.525126,104.505793 268.525126,106.83026 L268.525126,137.98106 C268.525126,141.31306 271.158611,144.025126 274.394067,144.025126 L284.656185,144.025126 C287.891641,144.025126 290.525126,141.31306 290.525126,137.98106 L290.525126,106.83026 C290.525126,104.505793 289.230944,102.507726 287.359002,101.496793 Z M275.525126,55.5353502 L278.280913,45.0251263 L280.76934,45.0251263 L283.525126,55.5353502 L280.922265,58.0061389 C280.908741,58.0186349 280.900419,58.0334028 280.887935,58.0458987 C280.846323,58.0879306 280.808871,58.1345063 280.77142,58.1810821 C280.740211,58.2197059 280.709001,58.2583298 280.681953,58.2992256 C280.651784,58.3446654 280.626817,58.3935132 280.600809,58.4423609 C280.575841,58.4900727 280.549834,58.5366485 280.529027,58.5854963 C280.508221,58.6343441 280.493657,58.6854638 280.477012,58.7365836 C280.460367,58.7911113 280.442682,58.8433671 280.431238,58.8990308 C280.420835,58.9490146 280.414593,58.9989984 280.408351,59.0501182 C280.400029,59.1114619 280.392747,59.1716696 280.391706,59.2341493 C280.390666,59.2534612 280.386505,59.2705011 280.386505,59.2898131 L280.386505,94.0251263 L278.666869,94.0251263 L278.666869,59.292085 C278.666869,59.2727731 278.662708,59.2557332 278.661667,59.2364213 C278.659587,59.1750776 278.652304,59.1137339 278.645022,59.0523901 C278.63878,59.0012704 278.632538,58.9501506 278.622135,58.9001668 C278.610692,58.8445031 278.593007,58.7911113 278.576362,58.7377196 C278.559717,58.6865998 278.545152,58.63548 278.524346,58.5877683 C278.50354,58.5377845 278.477532,58.4912087 278.452564,58.4434969 C278.426557,58.3946491 278.401589,58.3458014 278.37142,58.3003616 C278.344372,58.2594658 278.313163,58.2208419 278.281953,58.1822181 C278.244502,58.1356423 278.207051,58.0890665 278.165438,58.0470347 C278.152955,58.0345388 278.143592,58.0197709 278.131108,58.0072749 L275.525126,55.5353502 Z M274.525126,99.4996838 C274.525126,98.6866307 275.178678,98.0251263 275.981957,98.0251263 L276.461738,98.0251263 C276.469389,98.0251263 276.475946,98.0273387 276.482503,98.0273387 L281.567749,98.0273387 C281.575399,98.0273387 281.581957,98.0251263 281.588514,98.0251263 L282.068296,98.0251263 C282.871574,98.0251263 283.525126,98.6866307 283.525126,99.4996838 L283.525126,101.025126 L274.525126,101.025126 L274.525126,99.4996838 Z M281.525126,141.025126 L278.525126,141.025126 L278.525126,112.71052 C278.525126,111.781276 279.198099,111.025126 280.025126,111.025126 C280.852153,111.025126 281.525126,111.781276 281.525126,112.71052 L281.525126,141.025126 Z M287.525126,137.412909 C287.525126,138.85282 286.403691,140.025126 285.023875,140.025126 L284.82875,140.025126 L284.82875,112.185365 C284.82875,112.068918 284.816957,111.95583 284.795514,111.846102 C284.625048,109.240603 282.562293,107.168072 280.02459,107.168072 C277.486887,107.168072 275.425205,109.239483 275.254738,111.846102 C275.233296,111.95583 275.221503,112.068918 275.221503,112.185365 L275.221503,140.025126 L275.026377,140.025126 C273.646561,140.025126 272.525126,138.85282 272.525126,137.412909 L272.525126,106.637343 C272.525126,105.197433 273.647634,104.025126 275.026377,104.025126 L285.023875,104.025126 C286.403691,104.025126 287.525126,105.197433 287.525126,106.637343 L287.525126,137.412909 Z" id="Shape-Copy-3" fill="#012A36" fill-rule="nonzero" transform="translate(279.525126, 93.025126) rotate(-45.000000) translate(-279.525126, -93.025126) "></path>
                                    <path d="M287.359002,217.496793 L287.359002,215.223326 C287.359002,212.923793 285.811705,211.00506 283.736171,210.472393 L283.736171,176.432726 L286.715212,173.767126 C287.19943,173.334193 287.396418,172.651926 287.219239,172.016126 L283.672343,159.25706 C283.469851,158.527193 282.82276,158.025126 282.085428,158.025126 L276.964824,158.025126 C276.228593,158.025126 275.580401,158.527193 275.37791,159.25706 L271.831014,172.016126 C271.653834,172.651926 271.850823,173.334193 272.335041,173.767126 L275.314081,176.432726 L275.314081,210.472393 C273.239648,211.00506 271.691251,212.923793 271.691251,215.223326 L271.691251,217.496793 C269.819309,218.507726 268.525126,220.505793 268.525126,222.83026 L268.525126,253.98106 C268.525126,257.31306 271.158611,260.025126 274.394067,260.025126 L284.656185,260.025126 C287.891641,260.025126 290.525126,257.31306 290.525126,253.98106 L290.525126,222.83026 C290.525126,220.505793 289.230944,218.507726 287.359002,217.496793 Z M275.525126,171.53535 L278.280913,161.025126 L280.76934,161.025126 L283.525126,171.53535 L280.922265,174.006139 C280.908741,174.018635 280.900419,174.033403 280.887935,174.045899 C280.846323,174.087931 280.808871,174.134506 280.77142,174.181082 C280.740211,174.219706 280.709001,174.25833 280.681953,174.299226 C280.651784,174.344665 280.626817,174.393513 280.600809,174.442361 C280.575841,174.490073 280.549834,174.536648 280.529027,174.585496 C280.508221,174.634344 280.493657,174.685464 280.477012,174.736584 C280.460367,174.791111 280.442682,174.843367 280.431238,174.899031 C280.420835,174.949015 280.414593,174.998998 280.408351,175.050118 C280.400029,175.111462 280.392747,175.17167 280.391706,175.234149 C280.390666,175.253461 280.386505,175.270501 280.386505,175.289813 L280.386505,210.025126 L278.666869,210.025126 L278.666869,175.292085 C278.666869,175.272773 278.662708,175.255733 278.661667,175.236421 C278.659587,175.175078 278.652304,175.113734 278.645022,175.05239 C278.63878,175.00127 278.632538,174.950151 278.622135,174.900167 C278.610692,174.844503 278.593007,174.791111 278.576362,174.73772 C278.559717,174.6866 278.545152,174.63548 278.524346,174.587768 C278.50354,174.537784 278.477532,174.491209 278.452564,174.443497 C278.426557,174.394649 278.401589,174.345801 278.37142,174.300362 C278.344372,174.259466 278.313163,174.220842 278.281953,174.182218 C278.244502,174.135642 278.207051,174.089067 278.165438,174.047035 C278.152955,174.034539 278.143592,174.019771 278.131108,174.007275 L275.525126,171.53535 Z M274.525126,215.499684 C274.525126,214.686631 275.178678,214.025126 275.981957,214.025126 L276.461738,214.025126 C276.469389,214.025126 276.475946,214.027339 276.482503,214.027339 L281.567749,214.027339 C281.575399,214.027339 281.581957,214.025126 281.588514,214.025126 L282.068296,214.025126 C282.871574,214.025126 283.525126,214.686631 283.525126,215.499684 L283.525126,217.025126 L274.525126,217.025126 L274.525126,215.499684 Z M281.525126,257.025126 L278.525126,257.025126 L278.525126,228.71052 C278.525126,227.781276 279.198099,227.025126 280.025126,227.025126 C280.852153,227.025126 281.525126,227.781276 281.525126,228.71052 L281.525126,257.025126 Z M287.525126,253.412909 C287.525126,254.85282 286.403691,256.025126 285.023875,256.025126 L284.82875,256.025126 L284.82875,228.185365 C284.82875,228.068918 284.816957,227.95583 284.795514,227.846102 C284.625048,225.240603 282.562293,223.168072 280.02459,223.168072 C277.486887,223.168072 275.425205,225.239483 275.254738,227.846102 C275.233296,227.95583 275.221503,228.068918 275.221503,228.185365 L275.221503,256.025126 L275.026377,256.025126 C273.646561,256.025126 272.525126,254.85282 272.525126,253.412909 L272.525126,222.637343 C272.525126,221.197433 273.647634,220.025126 275.026377,220.025126 L285.023875,220.025126 C286.403691,220.025126 287.525126,221.197433 287.525126,222.637343 L287.525126,253.412909 Z" id="Shape-Copy-6" fill="#012A36" fill-rule="nonzero" transform="translate(279.525126, 209.025126) rotate(-45.000000) translate(-279.525126, -209.025126) "></path>
                                    <g id="Group-4-Copy-2" stroke-width="1" fill="none" fill-rule="evenodd" transform="translate(233.000000, 46.500000) rotate(-315.000000) translate(-233.000000, -46.500000) translate(217.000000, -3.000000)">
                                        <path d="M23.2338823,0.1771 C23.2185435,0.1694 23.2032047,0.1661 23.1878659,0.1595 C23.1308933,0.1331 23.072825,0.1122 23.0125655,0.0924 C22.9676447,0.077 22.922724,0.0616 22.8767076,0.0495 C22.8230219,0.0363 22.7682405,0.0297 22.7134591,0.022 C22.6586777,0.0143 22.6038963,0.0077 22.5480193,0.0055 C22.5293936,0.0055 22.5118636,0 22.4932379,0 C22.4592735,0 22.4275003,0.0077 22.3935358,0.0099 C22.3365632,0.0132 22.2806861,0.0176 22.2248091,0.0275 C22.172219,0.0363 22.1207245,0.0484 22.0703256,0.0627 C22.0188311,0.077 21.9673366,0.0913 21.9169377,0.11 C21.8687301,0.1287 21.8216181,0.1496 21.7756017,0.1727 C21.7252029,0.1969 21.6769952,0.2233 21.6298832,0.2519 C21.589345,0.2772 21.550998,0.3047 21.5126511,0.3333 C21.4655391,0.3685 21.4195227,0.4059 21.3756976,0.4466 C21.3417331,0.4785 21.3099599,0.5126 21.2792824,0.5467 C21.2398398,0.5907 21.2025884,0.6347 21.1664327,0.6831 C21.1368508,0.7249 21.1105557,0.7689 21.0842606,0.8129 C21.065635,0.8448 21.0415311,0.8723 21.0250967,0.9053 C21.0152361,0.924 21.0119492,0.9438 21.0031842,0.9625 C20.9823672,1.0076 20.9659328,1.0549 20.9494984,1.1022 C20.9286815,1.1605 20.9089602,1.2188 20.894717,1.2782 C20.885952,1.3178 20.8804739,1.3574 20.8749957,1.3981 C20.8640394,1.4685 20.8552744,1.5389 20.8541788,1.6104 C20.8541788,1.6236 20.8497963,1.6368 20.8497963,1.65 L20.8497963,10.2828 C20.8497963,11.7777 19.6402232,12.9954 18.154552,12.9954 L13.8421611,12.9954 C12.3564899,12.9954 11.1469168,11.7788 11.1469168,10.2828 L11.1469168,1.65 C11.1469168,1.6445 11.1458212,1.6401 11.1458212,1.6346 C11.1447256,1.54 11.1348649,1.4454 11.1173349,1.3497 C11.114048,1.3332 11.1129524,1.3178 11.1085699,1.3013 C11.0910398,1.2177 11.0636491,1.1363 11.0318759,1.0538 C11.0231109,1.0307 11.0154415,1.0076 11.0055809,0.9845 C10.9935289,0.957 10.9869552,0.9284 10.9738076,0.902 C10.9497038,0.8558 10.9190263,0.8162 10.8916356,0.7733 C10.8762968,0.7491 10.8620536,0.726 10.8467148,0.7029 C10.8006985,0.6369 10.7502996,0.5764 10.6955182,0.5192 C10.6768925,0.4994 10.6582669,0.4796 10.6396412,0.4609 C10.5837642,0.407 10.5256959,0.3597 10.4632451,0.3146 C10.4380457,0.2959 10.4128462,0.2783 10.3854555,0.2607 C10.325196,0.2222 10.2627452,0.1892 10.1981032,0.1584 C10.1641387,0.143 10.1312699,0.1276 10.0962098,0.1133 C10.0326634,0.0891 9.96911699,0.0693 9.9022837,0.0528 C9.86393673,0.0429 9.82558976,0.0341 9.78505153,0.0264 C9.71931386,0.0165 9.65138494,0.011 9.58236039,0.0077 C9.55606533,0.0066 9.53086589,0 9.50457082,0 C9.48923203,0 9.47498887,0.0044 9.45965008,0.0044 C9.3971993,0.0066 9.33584415,0.0143 9.27448899,0.0231 C9.22299449,0.0308 9.17149998,0.0374 9.12110111,0.0495 C9.07837162,0.0605 9.03673777,0.0748 8.99400829,0.0891 C8.92607936,0.1111 8.8603417,0.1364 8.79569966,0.1672 C8.78474338,0.1727 8.77378711,0.1738 8.76392646,0.1793 C3.35809909,2.937 0,8.4271 0,14.509 C0,20.1135 2.88478789,25.256 7.59050912,28.1655 L7.58064847,90.5553 C7.58064847,92.8103 8.45495943,94.9322 10.0436197,96.5261 C11.6322799,98.1211 13.7435546,99 15.9906872,99 C20.6251926,99 24.397439,95.2171 24.3996302,90.5674 C24.4051084,76.7063 24.4182559,40.0323 24.4193515,28.1633 C29.118499,25.2428 32,20.1003 32,14.5101 C32,8.415 28.6408053,2.9238 23.2338823,0.1771 Z M22.0002054,25.7598 C21.9761016,25.773 21.9563803,25.7917 21.9322765,25.806 C21.8840689,25.8357 21.8380525,25.8665 21.7931318,25.9006 C21.7493067,25.9336 21.7076728,25.9677 21.6682302,26.004 C21.6309789,26.0381 21.5959188,26.0744 21.5619543,26.1129 C21.550998,26.125 21.5389461,26.1349 21.5290855,26.147 L19.3893245,26.1536 C18.4810491,26.1558 17.7480741,26.8972 17.7502653,27.8091 C17.7524566,28.7177 18.4876228,29.4536 19.393707,29.4536 C19.3948026,29.4536 19.3969939,29.4536 19.3980895,29.4536 L21.1324682,29.4481 C21.1313726,42.4842 21.1193207,77.176 21.1138426,90.5663 C21.1127469,93.3966 18.8141199,95.7 15.9917828,95.7 C14.6233437,95.7 13.3370767,95.1654 12.3696374,94.193 C11.4021981,93.2217 10.869723,91.9292 10.869723,90.5553 L10.878488,27.214 C10.878488,27.1865 10.8719143,27.1612 10.8708186,27.1348 C10.8675318,27.0765 10.8620536,27.0182 10.8532886,26.961 C10.8456192,26.9093 10.8346629,26.8576 10.822611,26.8081 C10.8094635,26.7564 10.7941247,26.7069 10.775499,26.6563 C10.7568734,26.6057 10.7371521,26.5562 10.7141439,26.5078 C10.6911357,26.4594 10.6659362,26.4143 10.6385456,26.3681 C10.6111549,26.323 10.5837642,26.2801 10.5530866,26.2383 C10.5213134,26.1943 10.4862533,26.1525 10.449002,26.1118 C10.4139419,26.0733 10.3777861,26.0359 10.3394392,26.0007 C10.2999966,25.9644 10.2594583,25.9314 10.2167289,25.8995 C10.1707125,25.8654 10.1236005,25.8335 10.0742973,25.8038 C10.0501934,25.7895 10.0304721,25.7708 10.0063683,25.7576 C5.86160852,23.54 3.28688328,19.2302 3.28688328,14.509 C3.28688328,10.6524 4.99058445,7.0994 7.86003355,4.7047 L7.86003355,10.2817 C7.86003355,13.5971 10.5432259,16.2943 13.8421611,16.2943 L18.154552,16.2943 C21.4534872,16.2943 24.1366796,13.5971 24.1366796,10.2817 L24.1366796,4.6981 C27.0083199,7.0862 28.7131167,10.6436 28.7131167,14.5101 C28.7131167,19.2192 26.1405827,23.5301 22.0002054,25.7598 Z" id="Shape" fill="#012A36" fill-rule="nonzero"></path>
                                        <circle id="Oval" fill="#012A36" fill-rule="nonzero" cx="16" cy="90" r="3"></circle>
                                    </g>
                                    <g id="Group-4-Copy-5" stroke-width="1" fill="none" fill-rule="evenodd" transform="translate(233.000000, 162.500000) rotate(-315.000000) translate(-233.000000, -162.500000) translate(217.000000, 113.000000)">
                                        <path d="M23.2338823,0.1771 C23.2185435,0.1694 23.2032047,0.1661 23.1878659,0.1595 C23.1308933,0.1331 23.072825,0.1122 23.0125655,0.0924 C22.9676447,0.077 22.922724,0.0616 22.8767076,0.0495 C22.8230219,0.0363 22.7682405,0.0297 22.7134591,0.022 C22.6586777,0.0143 22.6038963,0.0077 22.5480193,0.0055 C22.5293936,0.0055 22.5118636,0 22.4932379,0 C22.4592735,0 22.4275003,0.0077 22.3935358,0.0099 C22.3365632,0.0132 22.2806861,0.0176 22.2248091,0.0275 C22.172219,0.0363 22.1207245,0.0484 22.0703256,0.0627 C22.0188311,0.077 21.9673366,0.0913 21.9169377,0.11 C21.8687301,0.1287 21.8216181,0.1496 21.7756017,0.1727 C21.7252029,0.1969 21.6769952,0.2233 21.6298832,0.2519 C21.589345,0.2772 21.550998,0.3047 21.5126511,0.3333 C21.4655391,0.3685 21.4195227,0.4059 21.3756976,0.4466 C21.3417331,0.4785 21.3099599,0.5126 21.2792824,0.5467 C21.2398398,0.5907 21.2025884,0.6347 21.1664327,0.6831 C21.1368508,0.7249 21.1105557,0.7689 21.0842606,0.8129 C21.065635,0.8448 21.0415311,0.8723 21.0250967,0.9053 C21.0152361,0.924 21.0119492,0.9438 21.0031842,0.9625 C20.9823672,1.0076 20.9659328,1.0549 20.9494984,1.1022 C20.9286815,1.1605 20.9089602,1.2188 20.894717,1.2782 C20.885952,1.3178 20.8804739,1.3574 20.8749957,1.3981 C20.8640394,1.4685 20.8552744,1.5389 20.8541788,1.6104 C20.8541788,1.6236 20.8497963,1.6368 20.8497963,1.65 L20.8497963,10.2828 C20.8497963,11.7777 19.6402232,12.9954 18.154552,12.9954 L13.8421611,12.9954 C12.3564899,12.9954 11.1469168,11.7788 11.1469168,10.2828 L11.1469168,1.65 C11.1469168,1.6445 11.1458212,1.6401 11.1458212,1.6346 C11.1447256,1.54 11.1348649,1.4454 11.1173349,1.3497 C11.114048,1.3332 11.1129524,1.3178 11.1085699,1.3013 C11.0910398,1.2177 11.0636491,1.1363 11.0318759,1.0538 C11.0231109,1.0307 11.0154415,1.0076 11.0055809,0.9845 C10.9935289,0.957 10.9869552,0.9284 10.9738076,0.902 C10.9497038,0.8558 10.9190263,0.8162 10.8916356,0.7733 C10.8762968,0.7491 10.8620536,0.726 10.8467148,0.7029 C10.8006985,0.6369 10.7502996,0.5764 10.6955182,0.5192 C10.6768925,0.4994 10.6582669,0.4796 10.6396412,0.4609 C10.5837642,0.407 10.5256959,0.3597 10.4632451,0.3146 C10.4380457,0.2959 10.4128462,0.2783 10.3854555,0.2607 C10.325196,0.2222 10.2627452,0.1892 10.1981032,0.1584 C10.1641387,0.143 10.1312699,0.1276 10.0962098,0.1133 C10.0326634,0.0891 9.96911699,0.0693 9.9022837,0.0528 C9.86393673,0.0429 9.82558976,0.0341 9.78505153,0.0264 C9.71931386,0.0165 9.65138494,0.011 9.58236039,0.0077 C9.55606533,0.0066 9.53086589,0 9.50457082,0 C9.48923203,0 9.47498887,0.0044 9.45965008,0.0044 C9.3971993,0.0066 9.33584415,0.0143 9.27448899,0.0231 C9.22299449,0.0308 9.17149998,0.0374 9.12110111,0.0495 C9.07837162,0.0605 9.03673777,0.0748 8.99400829,0.0891 C8.92607936,0.1111 8.8603417,0.1364 8.79569966,0.1672 C8.78474338,0.1727 8.77378711,0.1738 8.76392646,0.1793 C3.35809909,2.937 0,8.4271 0,14.509 C0,20.1135 2.88478789,25.256 7.59050912,28.1655 L7.58064847,90.5553 C7.58064847,92.8103 8.45495943,94.9322 10.0436197,96.5261 C11.6322799,98.1211 13.7435546,99 15.9906872,99 C20.6251926,99 24.397439,95.2171 24.3996302,90.5674 C24.4051084,76.7063 24.4182559,40.0323 24.4193515,28.1633 C29.118499,25.2428 32,20.1003 32,14.5101 C32,8.415 28.6408053,2.9238 23.2338823,0.1771 Z M22.0002054,25.7598 C21.9761016,25.773 21.9563803,25.7917 21.9322765,25.806 C21.8840689,25.8357 21.8380525,25.8665 21.7931318,25.9006 C21.7493067,25.9336 21.7076728,25.9677 21.6682302,26.004 C21.6309789,26.0381 21.5959188,26.0744 21.5619543,26.1129 C21.550998,26.125 21.5389461,26.1349 21.5290855,26.147 L19.3893245,26.1536 C18.4810491,26.1558 17.7480741,26.8972 17.7502653,27.8091 C17.7524566,28.7177 18.4876228,29.4536 19.393707,29.4536 C19.3948026,29.4536 19.3969939,29.4536 19.3980895,29.4536 L21.1324682,29.4481 C21.1313726,42.4842 21.1193207,77.176 21.1138426,90.5663 C21.1127469,93.3966 18.8141199,95.7 15.9917828,95.7 C14.6233437,95.7 13.3370767,95.1654 12.3696374,94.193 C11.4021981,93.2217 10.869723,91.9292 10.869723,90.5553 L10.878488,27.214 C10.878488,27.1865 10.8719143,27.1612 10.8708186,27.1348 C10.8675318,27.0765 10.8620536,27.0182 10.8532886,26.961 C10.8456192,26.9093 10.8346629,26.8576 10.822611,26.8081 C10.8094635,26.7564 10.7941247,26.7069 10.775499,26.6563 C10.7568734,26.6057 10.7371521,26.5562 10.7141439,26.5078 C10.6911357,26.4594 10.6659362,26.4143 10.6385456,26.3681 C10.6111549,26.323 10.5837642,26.2801 10.5530866,26.2383 C10.5213134,26.1943 10.4862533,26.1525 10.449002,26.1118 C10.4139419,26.0733 10.3777861,26.0359 10.3394392,26.0007 C10.2999966,25.9644 10.2594583,25.9314 10.2167289,25.8995 C10.1707125,25.8654 10.1236005,25.8335 10.0742973,25.8038 C10.0501934,25.7895 10.0304721,25.7708 10.0063683,25.7576 C5.86160852,23.54 3.28688328,19.2302 3.28688328,14.509 C3.28688328,10.6524 4.99058445,7.0994 7.86003355,4.7047 L7.86003355,10.2817 C7.86003355,13.5971 10.5432259,16.2943 13.8421611,16.2943 L18.154552,16.2943 C21.4534872,16.2943 24.1366796,13.5971 24.1366796,10.2817 L24.1366796,4.6981 C27.0083199,7.0862 28.7131167,10.6436 28.7131167,14.5101 C28.7131167,19.2192 26.1405827,23.5301 22.0002054,25.7598 Z" id="Shape" fill="#012A36" fill-rule="nonzero"></path>
                                        <circle id="Oval" fill="#012A36" fill-rule="nonzero" cx="16" cy="90" r="3"></circle>
                                    </g>
                                </g>
                            </g>
                            <path d="M48.3148424,88.5 L51.1748424,70.3 L56.7648424,70.3 L55.7768424,76.462 L61.3668424,76.462 L62.3548424,70.3 L67.9188424,70.3 L65.0328424,88.5 L59.4688424,88.5 L60.6128424,81.324 L55.0228424,81.324 L53.8788424,88.5 L48.3148424,88.5 Z M84.3075089,70.196 L88.9355089,88.5 L83.0595089,88.5 L82.3835089,85.094 L76.2735089,85.094 L74.5055089,88.5 L68.6035089,88.5 L78.9775089,70.196 L84.3075089,70.196 Z M80.6675089,76.592 L78.4315089,80.908 L81.5255089,80.908 L80.6675089,76.592 Z M92.5061754,88.5 L95.3661754,70.3 L100.956175,70.3 L98.8501754,83.69 L102.620175,83.69 L104.726175,70.3 L110.290175,70.3 L108.184175,83.69 L111.954175,83.69 L114.060175,70.3 L119.624175,70.3 L116.738175,88.5 L92.5061754,88.5 Z M136.012842,70.196 L140.640842,88.5 L134.764842,88.5 L134.088842,85.094 L127.978842,85.094 L126.210842,88.5 L120.308842,88.5 L130.682842,70.196 L136.012842,70.196 Z M132.372842,76.592 L130.136842,80.908 L133.230842,80.908 L132.372842,76.592 Z M40.0901759,104.92 C40.0901759,107.156 41.7281759,108.768 44.4581759,108.768 C46.1481759,108.768 47.8381759,108.456 49.3981759,107.39 L48.5141759,112.876 C47.0321759,113.474 45.6021759,113.864 43.9121759,113.864 C38.2181759,113.864 34.3961759,110.328 34.3961759,105.258 C34.3961759,98.966 38.8681759,94.936 45.3161759,94.936 C47.3181759,94.936 49.5541759,95.43 50.8281759,95.924 L49.9181759,101.098 C48.8001759,100.5 47.1101759,100.032 45.2901759,100.032 C42.0401759,100.032 40.0901759,101.904 40.0901759,104.92 Z M63.2388424,101.306 C67.2948424,101.306 69.6348424,103.594 69.6348424,106.662 C69.6348424,110.926 65.5788424,113.5 61.1848424,113.5 L52.9688424,113.5 L55.8288424,95.3 L69.7908424,95.3 L69.0628424,99.85 L60.7428424,99.85 L60.5088424,101.306 L63.2388424,101.306 Z M61.4448424,108.872 C62.4848424,108.872 64.0188424,108.352 64.0188424,106.922 C64.0188424,105.986 63.3168424,105.258 62.1468424,105.258 L59.8848424,105.258 L59.3128424,108.872 L61.4448424,108.872 Z M83.4495089,94.936 C89.1435089,94.936 92.7315089,98.55 92.7315089,103.776 C92.7315089,109.548 88.2595089,113.864 82.5655089,113.864 C76.9235089,113.864 73.2835089,110.224 73.2835089,105.024 C73.2835089,99.2 77.8335089,94.936 83.4495089,94.936 Z M82.7215089,108.768 C85.3995089,108.768 87.0375089,106.61 87.0375089,103.776 C87.0375089,101.826 85.6855089,100.032 83.2935089,100.032 C80.6935089,100.032 78.9775089,102.19 78.9775089,105.024 C78.9775089,106.974 80.3295089,108.768 82.7215089,108.768 Z M106.754175,95.3 C110.680175,95.3 113.020175,97.458 113.020175,100.5 C113.020175,104.4 109.900175,107.156 105.506175,107.156 L102.438175,107.156 L101.450175,113.5 L95.8861754,113.5 L98.7461754,95.3 L106.754175,95.3 Z M103.114175,103.1 L104.960175,103.1 C106.104175,103.1 107.404175,102.658 107.404175,101.228 C107.404175,100.37 106.858175,99.85 105.636175,99.85 L103.634175,99.85 L103.114175,103.1 Z M114.822842,113.5 L117.656842,95.3 L123.220842,95.3 L122.180842,102.008 L127.796842,95.3 L134.686842,95.3 L127.198842,104.062 L133.178842,113.5 L126.548842,113.5 L121.608842,105.726 L120.386842,113.5 L114.822842,113.5 Z M150.711508,95.196 L155.339508,113.5 L149.463508,113.5 L148.787508,110.094 L142.677508,110.094 L140.909508,113.5 L135.007508,113.5 L145.381508,95.196 L150.711508,95.196 Z M147.071508,101.592 L144.835508,105.908 L147.929508,105.908 L147.071508,101.592 Z" id="" fill="#012A36" fill-rule="nonzero" mask="url(#mask-2)"></path>
                        </g>
                    </g>
                </g>
            </g>
        </g>
    </g>
</svg>
