<?xml version="1.0" standalone="no"?>
<!DOCTYPE svg PUBLIC "-//W3C//DTD SVG 20010904//EN"
 "http://www.w3.org/TR/2001/REC-SVG-20010904/DTD/svg10.dtd">
<svg version="1.0" xmlns="http://www.w3.org/2000/svg"
 width="310.000000pt" height="310.000000pt" viewBox="0 0 310.000000 310.000000"
 preserveAspectRatio="xMidYMid meet">
<metadata>
Created by potrace 1.11, written by Peter Selinger 2001-2013
</metadata>
<g transform="translate(0.000000,310.000000) scale(0.100000,-0.100000)"
fill="#000000" stroke="none">
<path d="M2561 2958 c-108 -19 -190 -96 -342 -322 -40 -60 -90 -127 -111 -148
-34 -35 -39 -37 -68 -27 -17 6 -60 44 -97 86 -79 87 -118 113 -170 115 -57 1
-58 0 -91 -33 -46 -47 -68 -128 -74 -266 l-3 -53 -55 -15 c-98 -28 -175 -65
-273 -133 -104 -72 -777 -642 -845 -716 -83 -90 -115 -196 -92 -298 28 -123
161 -278 297 -345 68 -33 83 -37 153 -37 65 1 87 6 143 32 66 30 109 69 243
215 76 84 138 102 203 61 42 -27 64 -53 130 -152 146 -218 300 -316 496 -316
207 0 379 112 475 309 56 114 68 208 43 340 -24 127 -252 557 -395 743 -23 29
-39 54 -37 57 3 2 20 7 39 10 49 9 175 51 238 80 29 14 56 25 60 25 14 0 167
83 222 120 83 57 147 117 175 164 47 80 52 223 11 335 -45 122 -155 190 -275
169z m-1130 -1104 c61 -31 80 -126 38 -189 -53 -77 -168 -73 -218 8 -37 60
-22 134 36 175 47 33 89 35 144 6z"/>
<path d="M221 2634 c-108 -32 -174 -115 -187 -237 -12 -111 30 -222 115 -306
88 -86 205 -134 411 -167 14 -2 96 -6 182 -9 l157 -5 33 28 c33 27 62 52 108
93 71 62 211 169 255 194 28 16 52 30 54 32 9 7 -34 143 -65 208 -38 78 -80
115 -131 115 -76 0 -118 -40 -181 -168 -57 -115 -81 -133 -140 -103 -20 10
-76 52 -122 93 -180 156 -275 218 -365 236 -62 12 -71 12 -124 -4z"/>
<path d="M2223 2040 l-52 -16 67 -100 c37 -55 73 -111 81 -124 105 -180 226
-429 247 -509 35 -139 17 -296 -50 -420 -62 -115 -168 -217 -281 -267 -265
-117 -543 -24 -732 243 -21 29 -57 80 -80 113 -58 81 -84 97 -131 80 -47 -16
-61 -29 -134 -118 l-59 -73 162 -292 c210 -380 206 -373 256 -398 41 -20 59
-21 506 -21 498 0 507 1 555 53 12 12 65 102 119 198 53 97 108 196 122 221
168 302 241 438 242 453 1 9 2 23 3 30 4 29 -19 82 -100 227 -47 85 -102 184
-122 220 -19 36 -74 135 -121 220 -48 85 -93 168 -101 184 -23 44 -78 94 -113
102 -62 14 -231 10 -284 -6z"/>
</g>
</svg>
